{
    "asset" : {
        "generator" : "Khronos glTF Blender I/O v3.2.40",
        "version" : "2.0"
    },
    "scene" : 0,
    "scenes" : [
        {
            "name" : "Scene",
            "nodes" : [
                0
            ]
        }
    ],
    "nodes" : [
        {
            "mesh" : 0,
            "name" : "Curve"
        }
    ],
    "materials" : [
        {
            "doubleSided" : true,
            "name" : "SVGMat.003",
            "pbrMetallicRoughness" : {
                "baseColorFactor" : [
                    0,
                    0,
                    0,
                    1
                ],
                "metallicFactor" : 0,
                "roughnessFactor" : 0.4000000059604645
            }
        }
    ],
    "meshes" : [
        {
            "name" : "Curve.001",
            "primitives" : [
                {
                    "attributes" : {
                        "POSITION" : 0,
                        "NORMAL" : 1,
                        "TEXCOORD_0" : 2
                    },
                    "indices" : 3,
                    "material" : 0
                }
            ]
        }
    ],
    "accessors" : [
        {
            "bufferView" : 0,
            "componentType" : 5126,
            "count" : 26379,
            "max" : [
                0.017344333231449127,
                0.0020000000949949026,
                0.01644562929868698
            ],
            "min" : [
                -0.018206145614385605,
                -0.0020000000949949026,
                -0.01806136593222618
            ],
            "type" : "VEC3"
        },
        {
            "bufferView" : 1,
            "componentType" : 5126,
            "count" : 26379,
            "type" : "VEC3"
        },
        {
            "bufferView" : 2,
            "componentType" : 5126,
            "count" : 26379,
            "type" : "VEC2"
        },
        {
            "bufferView" : 3,
            "componentType" : 5123,
            "count" : 47220,
            "type" : "SCALAR"
        }
    ],
    "bufferViews" : [
        {
            "buffer" : 0,
            "byteLength" : 316548,
            "byteOffset" : 0
        },
        {
            "buffer" : 0,
            "byteLength" : 316548,
            "byteOffset" : 316548
        },
        {
            "buffer" : 0,
            "byteLength" : 211032,
            "byteOffset" : 633096
        },
        {
            "buffer" : 0,
            "byteLength" : 94440,
            "byteOffset" : 844128
        }
    ],
    "buffers" : [
        {
            "byteLength" : 938568,
            "uri" : "data:application/octet-stream;base64,"
        }
    ]
}
