{
    "asset" : {
        "generator" : "Khronos glTF Blender I/O v3.2.40",
        "version" : "2.0"
    },
    "scene" : 0,
    "scenes" : [
        {
            "name" : "Scene",
            "nodes" : [
                2
            ]
        }
    ],
    "nodes" : [
        {
            "mesh" : 0,
            "name" : "Curve.001",
            "translation" : [
                0.0018920961301773787,
                0,
                0.006814326625317335
            ]
        },
        {
            "mesh" : 1,
            "name" : "Curve.002",
            "translation" : [
                -0.0013309968635439873,
                0,
                0.009124170057475567
            ]
        },
        {
            "children" : [
                0,
                1
            ],
            "mesh" : 2,
            "name" : "Curve",
            "rotation" : [
                0.6929594874382019,
                0.32671159505844116,
                -0.20225243270397186,
                0.6100497245788574
            ],
            "scale" : [
                32.63290786743164,
                1,
                32.63290786743164
            ],
            "translation" : [
                -0.024813778698444366,
                0.16823837161064148,
                0.03428763151168823
            ]
        }
    ],
    "materials" : [
        {
            "doubleSided" : true,
            "name" : "SVGMat.004",
            "pbrMetallicRoughness" : {
                "baseColorFactor" : [
                    0,
                    0,
                    0,
                    1
                ],
                "metallicFactor" : 0,
                "roughnessFactor" : 0.4000000059604645
            }
        }
    ],
    "meshes" : [
        {
            "name" : "Curve.001",
            "primitives" : [
                {
                    "attributes" : {
                        "POSITION" : 0,
                        "NORMAL" : 1,
                        "TEXCOORD_0" : 2
                    },
                    "indices" : 3,
                    "material" : 0
                }
            ]
        },
        {
            "name" : "Curve.002",
            "primitives" : [
                {
                    "attributes" : {
                        "POSITION" : 4,
                        "NORMAL" : 5,
                        "TEXCOORD_0" : 6
                    },
                    "indices" : 7,
                    "material" : 0
                }
            ]
        },
        {
            "name" : "Curve",
            "primitives" : [
                {
                    "attributes" : {
                        "POSITION" : 8,
                        "NORMAL" : 9,
                        "TEXCOORD_0" : 10
                    },
                    "indices" : 11,
                    "material" : 0
                }
            ]
        }
    ],
    "accessors" : [
        {
            "bufferView" : 0,
            "componentType" : 5126,
            "count" : 174,
            "max" : [
                0.0031528801191598177,
                0,
                0.001663917675614357
            ],
            "min" : [
                -0.0032550229225307703,
                0,
                -0.0011331933783367276
            ],
            "type" : "VEC3"
        },
        {
            "bufferView" : 1,
            "componentType" : 5126,
            "count" : 174,
            "type" : "VEC3"
        },
        {
            "bufferView" : 2,
            "componentType" : 5126,
            "count" : 174,
            "type" : "VEC2"
        },
        {
            "bufferView" : 3,
            "componentType" : 5123,
            "count" : 390,
            "type" : "SCALAR"
        },
        {
            "bufferView" : 4,
            "componentType" : 5126,
            "count" : 62,
            "max" : [
                0.0003349892795085907,
                0,
                0.00026959553360939026
            ],
            "min" : [
                -0.00038898593629710376,
                0,
                -0.0002281181514263153
            ],
            "type" : "VEC3"
        },
        {
            "bufferView" : 5,
            "componentType" : 5126,
            "count" : 62,
            "type" : "VEC3"
        },
        {
            "bufferView" : 6,
            "componentType" : 5126,
            "count" : 62,
            "type" : "VEC2"
        },
        {
            "bufferView" : 7,
            "componentType" : 5123,
            "count" : 138,
            "type" : "SCALAR"
        },
        {
            "bufferView" : 8,
            "componentType" : 5126,
            "count" : 11240,
            "max" : [
                0.015680335462093353,
                0.09999998658895493,
                0.01710832677781582
            ],
            "min" : [
                -0.020037570968270302,
                -0.09999998658895493,
                -0.01846574805676937
            ],
            "type" : "VEC3"
        },
        {
            "bufferView" : 9,
            "componentType" : 5126,
            "count" : 11240,
            "type" : "VEC3"
        },
        {
            "bufferView" : 10,
            "componentType" : 5126,
            "count" : 11240,
            "type" : "VEC2"
        },
        {
            "bufferView" : 11,
            "componentType" : 5123,
            "count" : 20724,
            "type" : "SCALAR"
        }
    ],
    "bufferViews" : [
        {
            "buffer" : 0,
            "byteLength" : 2088,
            "byteOffset" : 0
        },
        {
            "buffer" : 0,
            "byteLength" : 2088,
            "byteOffset" : 2088
        },
        {
            "buffer" : 0,
            "byteLength" : 1392,
            "byteOffset" : 4176
        },
        {
            "buffer" : 0,
            "byteLength" : 780,
            "byteOffset" : 5568
        },
        {
            "buffer" : 0,
            "byteLength" : 744,
            "byteOffset" : 6348
        },
        {
            "buffer" : 0,
            "byteLength" : 744,
            "byteOffset" : 7092
        },
        {
            "buffer" : 0,
            "byteLength" : 496,
            "byteOffset" : 7836
        },
        {
            "buffer" : 0,
            "byteLength" : 276,
            "byteOffset" : 8332
        },
        {
            "buffer" : 0,
            "byteLength" : 134880,
            "byteOffset" : 8608
        },
        {
            "buffer" : 0,
            "byteLength" : 134880,
            "byteOffset" : 143488
        },
        {
            "buffer" : 0,
            "byteLength" : 89920,
            "byteOffset" : 278368
        },
        {
            "buffer" : 0,
            "byteLength" : 41448,
            "byteOffset" : 368288
        }
    ],
    "buffers" : [
        {
            "byteLength" : 409736,
            "uri" : "data:application/octet-stream;base64,"
        }
    ]
}
