{
    "asset" : {
        "generator" : "Khronos glTF Blender I/O v3.2.40",
        "version" : "2.0"
    },
    "scene" : 0,
    "scenes" : [
        {
            "name" : "Scene",
            "nodes" : [
                0
            ]
        }
    ],
    "nodes" : [
        {
            "mesh" : 0,
            "name" : "Curve",
            "rotation" : [
                0.6462982892990112,
                0,
                0,
                0.763084888458252
            ]
        }
    ],
    "materials" : [
        {
            "doubleSided" : true,
            "name" : "SVGMat.003",
            "pbrMetallicRoughness" : {
                "baseColorFactor" : [
                    0,
                    0,
                    0,
                    1
                ],
                "metallicFactor" : 0,
                "roughnessFactor" : 0.4000000059604645
            }
        }
    ],
    "meshes" : [
        {
            "name" : "Curve",
            "primitives" : [
                {
                    "attributes" : {
                        "POSITION" : 0,
                        "NORMAL" : 1,
                        "TEXCOORD_0" : 2
                    },
                    "indices" : 3,
                    "material" : 0
                }
            ]
        }
    ],
    "accessors" : [
        {
            "bufferView" : 0,
            "componentType" : 5126,
            "count" : 20422,
            "max" : [
                0.017137710005044937,
                0.0020000000949949026,
                0.018028264865279198
            ],
            "min" : [
                -0.016004569828510284,
                -0.0020000000949949026,
                -0.016637681052088737
            ],
            "type" : "VEC3"
        },
        {
            "bufferView" : 1,
            "componentType" : 5126,
            "count" : 20422,
            "type" : "VEC3"
        },
        {
            "bufferView" : 2,
            "componentType" : 5126,
            "count" : 20422,
            "type" : "VEC2"
        },
        {
            "bufferView" : 3,
            "componentType" : 5123,
            "count" : 37116,
            "type" : "SCALAR"
        }
    ],
    "bufferViews" : [
        {
            "buffer" : 0,
            "byteLength" : 245064,
            "byteOffset" : 0
        },
        {
            "buffer" : 0,
            "byteLength" : 245064,
            "byteOffset" : 245064
        },
        {
            "buffer" : 0,
            "byteLength" : 163376,
            "byteOffset" : 490128
        },
        {
            "buffer" : 0,
            "byteLength" : 74232,
            "byteOffset" : 653504
        }
    ],
    "buffers" : [
        {
            "byteLength" : 727736,
            "uri" : "data:application/octet-stream;base64,"
        }
    ]
}
