{
    "asset" : {
        "generator" : "Khronos glTF Blender I/O v3.2.40",
        "version" : "2.0"
    },
    "scene" : 0,
    "scenes" : [
        {
            "name" : "Scene",
            "nodes" : [
                0
            ]
        }
    ],
    "nodes" : [
        {
            "mesh" : 0,
            "name" : "Curve",
            "scale" : [
                14.426362037658691,
                1,
                14.426362037658691
            ]
        }
    ],
    "materials" : [
        {
            "doubleSided" : true,
            "name" : "SVGMat.001",
            "pbrMetallicRoughness" : {
                "baseColorFactor" : [
                    0,
                    0,
                    0,
                    1
                ],
                "metallicFactor" : 0,
                "roughnessFactor" : 0.4000000059604645
            }
        }
    ],
    "meshes" : [
        {
            "name" : "Curve",
            "primitives" : [
                {
                    "attributes" : {
                        "POSITION" : 0,
                        "NORMAL" : 1,
                        "TEXCOORD_0" : 2
                    },
                    "indices" : 3,
                    "material" : 0
                }
            ]
        }
    ],
    "accessors" : [
        {
            "bufferView" : 0,
            "componentType" : 5126,
            "count" : 20340,
            "max" : [
                0.01233589556068182,
                0.009999999776482582,
                0.01668538525700569
            ],
            "min" : [
                -0.009325173683464527,
                -0.009999999776482582,
                -0.019255751743912697
            ],
            "type" : "VEC3"
        },
        {
            "bufferView" : 1,
            "componentType" : 5126,
            "count" : 20340,
            "type" : "VEC3"
        },
        {
            "bufferView" : 2,
            "componentType" : 5126,
            "count" : 20340,
            "type" : "VEC2"
        },
        {
            "bufferView" : 3,
            "componentType" : 5123,
            "count" : 36840,
            "type" : "SCALAR"
        }
    ],
    "bufferViews" : [
        {
            "buffer" : 0,
            "byteLength" : 244080,
            "byteOffset" : 0
        },
        {
            "buffer" : 0,
            "byteLength" : 244080,
            "byteOffset" : 244080
        },
        {
            "buffer" : 0,
            "byteLength" : 162720,
            "byteOffset" : 488160
        },
        {
            "buffer" : 0,
            "byteLength" : 73680,
            "byteOffset" : 650880
        }
    ],
    "buffers" : [
        {
            "byteLength" : 724560,
            "uri" : "data:application/octet-stream;base64,"
        }
    ]
}
