<?xml version="1.0" encoding="utf-8"?>
<!-- Generator: Adobe Illustrator 16.0.0, SVG Export Plug-In . SVG Version: 6.00 Build 0)  -->
<!DOCTYPE svg PUBLIC "-//W3C//DTD SVG 1.1//EN" "http://www.w3.org/Graphics/SVG/1.1/DTD/svg11.dtd">
<svg version="1.1" id="Layer_1" xmlns="http://www.w3.org/2000/svg" xmlns:xlink="http://www.w3.org/1999/xlink" x="0px" y="0px"
	 width="612px" height="792px" viewBox="0 0 612 792" enable-background="new 0 0 612 792" xml:space="preserve">
<title>Pinnacle Dark Background</title>
<path fill="#27AAE1" d="M113.601,429.771c-12.505-27.125-24.937-54.25-37.505-81.258c-12.93,27.098-25.696,54.368-38.626,81.493
	c-0.29,0.199-0.452-0.235-0.561-0.353c-6.355-6.557-10.773-14.742-12.767-23.653c-1.203-5.645-1.462-11.45-0.769-17.179
	c0.652-5.025,2.073-9.919,4.213-14.512c3.772-8.206,9.677-15.25,17.098-20.398c8.266-5.863,18.057-9.202,28.183-9.611
	c10.819-0.594,21.557,2.172,30.742,7.92c7.904,4.887,14.348,11.811,18.653,20.046c5.009,9.961,6.631,21.285,4.62,32.252
	c-1.603,8.447-5.383,16.329-10.968,22.866C115.241,428.269,114.464,429.069,113.601,429.771z"/>
<path fill="#27AAE1" d="M75.887,375.755c9.476,20.534,18.735,41.276,28.183,61.836c-8.565,5.517-18.555,8.414-28.744,8.337
	c-10.156,0.007-20.103-2.886-28.671-8.337C56.396,416.995,66.141,396.383,75.887,375.755z"/>
<path fill="#2B3A42" d="M428.082,399.264h-5.651l-19.892-43.852l-20.796,43.852h-5.354l26.222-55.299L428.082,399.264z"/>
<path fill="#2B3A42" d="M173.764,345.746h14.422c5.126,0,9.114,0.153,12.658,2.712c3.31,2.414,5.344,6.854,5.344,12.125
	c0,10.624-6.021,14.847-17.93,14.847h-9.603v24.187h-4.9v-53.871H173.764z M185.925,371.135c9.566,0,15.073-1.058,15.073-10.172
	c0-3.843-1.356-7.007-3.617-8.816c-2.486-2.034-6.103-2.106-11.456-2.106h-7.233v21.094H185.925z"/>
<path fill="#2B3A42" d="M224.362,345.746h4.901v53.871h-4.901V345.746z"/>
<path fill="#2B3A42" d="M252.645,343.485l38.12,45.055v-42.794h4.593v55.443l-38.12-45.127v43.555h-4.593V343.485z"/>
<path fill="#2B3A42" d="M317.637,343.485l38.12,45.055v-42.794h4.593v55.443l-38.11-45.127v43.555h-4.603V343.485z"/>
<path fill="#2B3A42" d="M466.555,348.829c-14.087,0-23.509,9.946-23.509,23.879c0,14.395,9.946,23.843,22.857,23.843
	c6.347-0.032,12.491-2.24,17.405-6.257l-0.072,5.723c-5.127,3.23-11.048,4.98-17.106,5.055c-16.203,0-28.328-11.375-28.328-28.328
	c0-16.574,12.36-28.174,28.328-28.174c6.854,0,12.73,1.881,17.55,5.651l-0.154,5.425
	C478.264,351.09,472.884,348.829,466.555,348.829z"/>
<path fill="#2B3A42" d="M506.338,345.746h4.9v49.269h18.455v4.593h-23.355V345.746z"/>
<path fill="#2B3A42" d="M549.467,345.746h26.674v4.593h-21.772v19.892h21.772v4.621h-21.772v20.163h21.772v4.593h-26.674V345.746z"
	/>
<path fill="#2B3A42" d="M173.484,417.646h2.433v26.827h-2.433V417.646z"/>
<path fill="#2B3A42" d="M204.344,416.524l18.987,22.415v-21.294h2.288v27.587l-19.015-22.46v21.7h-2.26V416.524z"/>
<path fill="#2B3A42" d="M250.285,417.646h2.812l7.722,21.818l8.138-21.818h2.658l-10.85,27.515L250.285,417.646z"/>
<path fill="#2B3A42" d="M296.334,417.646h13.255v2.288h-10.851v8.399h10.851v2.288h-10.851v11.546h10.851v2.306h-13.255V417.646z"/>
<path fill="#2B3A42" d="M337.32,438.831c0.598,2.494,2.861,4.229,5.426,4.159c3.372,0,5.425-2.062,5.425-5.66
	c0-3.301-1.953-4.521-5.091-6.185c-4.231-2.216-6.709-3.934-6.709-7.686c0-3.753,2.813-6.447,6.926-6.447
	c2.471-0.118,4.784,1.213,5.923,3.409l-1.872,1.121c-0.798-1.558-2.449-2.487-4.195-2.36c-2.211-0.166-4.138,1.492-4.304,3.703
	c-0.015,0.2-0.015,0.401,0,0.602c0,3.264,2.441,4.015,5.922,5.922c3.934,2.143,5.724,3.861,5.724,7.911
	c0,4.802-2.992,7.84-7.83,7.84c-3.518,0-6.03-1.764-7.45-5.217L337.32,438.831z"/>
<path fill="#2B3A42" d="M382.421,419.934h-7.378v-2.288h17.179v2.288h-7.378v24.539h-2.432v-24.539H382.421z"/>
<path fill="#2B3A42" d="M420.821,423.984l-2.025,20.488h-2.505l3.617-27.93l10.262,23.843l10.643-23.843l3.454,27.93h-2.505
	l-1.989-20.471l-9.548,21.52L420.821,423.984z"/>
<path fill="#2B3A42" d="M471.075,417.646h13.255v2.288h-10.85v8.399h10.85v2.288h-10.85v11.546h10.85v2.306h-13.255V417.646z"/>
<path fill="#2B3A42" d="M512.007,416.524l18.988,22.415v-21.294h2.287v27.587l-18.987-22.46v21.7h-2.288V416.524L512.007,416.524z"
	/>
<path fill="#2B3A42" d="M566.402,419.934h-7.378v-2.288h17.18v2.288h-7.378v24.539h-2.441v-24.539H566.402z"/>
<line fill="none" x1="148.203" y1="345.746" x2="148.203" y2="444.455"/>
</svg>
